<svg width="20" height="18" viewBox="0 0 20 18" fill="none" xmlns="http://www.w3.org/2000/svg">
  <path
    d="M12 0C9.87827 0 7.84344 0.842855 6.34315 2.34315C4.84285 3.84344 4 5.87827 4 8C4 10.1217 4.84285 12.1566 6.34315 13.6569C7.84344 15.1571 9.87827 16 12 16C14.1217 16 16.1566 15.1571 17.6569 13.6569C19.1571 12.1566 20 10.1217 20 8H18C18 11.32 15.32 14 12 14C10.4087 14 8.88258 13.3679 7.75736 12.2426C6.63214 11.1174 6 9.5913 6 8C6 6.4087 6.63214 4.88258 7.75736 3.75736C8.88258 2.63214 10.4087 2 12 2C12.43 2 12.86 2.05 13.27 2.14L14.88 0.54C13.96 0.18 13 0 12 0ZM18.59 1.58L12 8.17L9.62 5.79L8.21 7.21L12 11L20 3L18.59 1.58ZM2.93 3.82C1.08 5.34 0 7.61 0 10C0 12.1217 0.842855 14.1566 2.34315 15.6569C3.84344 17.1571 5.87827 18 8 18C8.64 18 9.27 17.92 9.88 17.77C8.12 17.38 6.5 16.5 5.17 15.29C3.22 14.25 2 12.21 2 10C2 9.7 2.03 9.41 2.07 9.11C2.03 8.74 2 8.37 2 8C2 6.56 2.32 5.13 2.93 3.82Z"
    fill="#000"
  />
</svg>
